<svg id="Layer_1" data-name="Layer 1" xmlns="http://www.w3.org/2000/svg" xmlns:xlink="http://www.w3.org/1999/xlink" viewBox="0 0 289 289"><defs><style>.cls-1{fill:url(#linear-gradient);}.cls-2{fill:#666;}.cls-3{fill:#fff;stroke:#fff;stroke-miterlimit:10;stroke-width:7px;}</style><linearGradient id="linear-gradient" x1="2" y1="144.5" x2="287" y2="144.5" gradientUnits="userSpaceOnUse"><stop offset="0.1" stop-color="#cce0f4"/><stop offset="0.14" stop-color="#c7d7f4"/><stop offset="0.21" stop-color="#b9bdf4"/><stop offset="0.3" stop-color="#a394f5"/><stop offset="0.4" stop-color="#855af6"/><stop offset="0.52" stop-color="#5e11f7"/><stop offset="0.54" stop-color="#5806f7"/><stop offset="0.75" stop-color="#6d4df4"/><stop offset="0.9" stop-color="#aa06f7"/></linearGradient></defs><title>logo1</title><circle class="cls-1" cx="144.5" cy="144.5" r="142.5"/><path class="cls-2" d="M196.5,10a140.5,140.5,0,0,1,99.35,239.85A140.5,140.5,0,0,1,97.15,51.15,139.57,139.57,0,0,1,196.5,10m0-4A144.5,144.5,0,1,0,341,150.5,144.49,144.49,0,0,0,196.5,6Z" transform="translate(-52 -6)"/><text x="-52" y="-6"/><polygon class="cls-3" points="41.54 136.21 47.09 99.59 101.47 172.84 97.03 62.97 123.67 33 127 225 41.54 136.21"/><polygon class="cls-3" points="143 33 144.11 225 246.21 199.47 266.19 158.41 167.42 192.81 168.53 58.53 143 33"/></svg>